<svg xmlns="http://www.w3.org/2000/svg" width="428.455" height="261.578" viewBox="0 0 113.362 69.209"><defs><path id="j" d="M318.453 546.48h72.215v65.529h-72.215z"/><path id="g" d="M198.362 359.679h28.431v23.236h-28.431z"/><path id="f" d="M338.921 368.971h29.959v25.955h-29.959z"/><path id="d" d="M98.947 275.5h102.844v63.355H98.947z"/><path id="c" d="M135.76 274.473h41.922v27.785H135.76z"/><path id="i" d="M135.76 274.473h41.922v27.785H135.76z"/><marker id="a" markerHeight="1" markerWidth="1" orient="auto-start-reverse" preserveAspectRatio="xMidYMid" refX="0" refY="0" style="overflow:visible" viewBox="0 0 1 1"><path d="M3-3 0 0l3 3" style="fill:none;stroke:context-stroke;stroke-width:1;stroke-linecap:butt" transform="rotate(180 .125 0)"/></marker><marker id="b" markerHeight="1" markerWidth="1" orient="auto-start-reverse" preserveAspectRatio="xMidYMid" refX="0" refY="0" style="overflow:visible" viewBox="0 0 1 1"><path d="M3-3 0 0l3 3" style="fill:none;stroke:context-stroke;stroke-width:1;stroke-linecap:butt" transform="rotate(180 .125 0)"/></marker><marker id="e" markerHeight="1" markerWidth="1" orient="auto-start-reverse" preserveAspectRatio="xMidYMid" refX="0" refY="0" style="overflow:visible" viewBox="0 0 1 1"><path d="M3-3 0 0l3 3" style="fill:none;stroke:context-stroke;stroke-width:1;stroke-linecap:butt" transform="rotate(180 .125 0)"/></marker><marker id="h" markerHeight="1" markerWidth="1" orient="auto-start-reverse" preserveAspectRatio="xMidYMid" refX="0" refY="0" style="overflow:visible" viewBox="0 0 1 1"><path d="M3-3 0 0l3 3" style="fill:none;stroke:context-stroke;stroke-width:1;stroke-linecap:butt" transform="rotate(180 .125 0)"/></marker></defs><g transform="translate(-14.106 -42.9)"><path d="M-127.336 43.031h113.098v68.944h-113.098z" style="fill:#fff;stroke:#fff;stroke-width:.264584;stroke-linejoin:bevel" transform="scale(-1 1)"/><path d="m117.806 83.122-69.815.132V64.72l18.653-.132z" style="fill:none;stroke:#000;stroke-width:.264583px;stroke-linecap:butt;stroke-linejoin:miter;stroke-opacity:1"/><circle cx="-57.318" cy="73.921" r="7.463" style="fill:none;stroke:#000;stroke-width:.264583;stroke-linejoin:bevel" transform="scale(-1 1)"/><circle cx="-74.018" cy="75.569" r="5.815" style="fill:none;stroke:#000;stroke-width:.264583;stroke-linejoin:bevel" transform="scale(-1 1)"/><circle cx="-86.186" cy="77.504" r="4.134" style="fill:none;stroke:#000;stroke-width:.264583;stroke-linejoin:bevel" transform="scale(-1 1)"/><circle cx="-94.684" cy="79.022" r="2.874" style="fill:none;stroke:#000;stroke-width:.264583;stroke-linejoin:bevel" transform="scale(-1 1)"/><circle cx="-101.306" cy="79.99" r="1.824" style="fill:none;stroke:#000;stroke-width:.264583;stroke-linejoin:bevel" transform="scale(-1 1)"/><path d="M47.991 64.72H28.695M47.859 83.122H28.563" style="fill:none;stroke:#ccc;stroke-width:.264583px;stroke-linecap:butt;stroke-linejoin:miter;stroke-opacity:1"/><path d="m28.695 64.72-.132 18.8" style="fill:none;stroke:#000;stroke-width:.264583px;stroke-linecap:butt;stroke-linejoin:miter;stroke-opacity:1;marker-start:url(#a);marker-end:url(#a)"/><path d="M117.72 83.387V52.422M66.644 64.587V52.798" style="fill:none;stroke:#ccc;stroke-width:.264583px;stroke-linecap:butt;stroke-linejoin:miter;stroke-opacity:1"/><path d="m117.71 53.884-51.057-.132" style="fill:none;stroke:#000;stroke-width:.264582px;stroke-linecap:butt;stroke-linejoin:miter;stroke-opacity:1;marker-start:url(#b);marker-end:url(#b)"/><text xml:space="preserve" style="font-size:14.6667px;line-height:1.25;font-family:sans-serif;white-space:pre;shape-inside:url(#c);display:inline" transform="translate(-13.17 -.074)scale(.26458)"><tspan x="135.76" y="287.449">H1</tspan></text><text xml:space="preserve" style="font-size:14.6667px;line-height:1.25;font-family:sans-serif;white-space:pre;shape-inside:url(#d);display:inline" transform="translate(65.399 -24.413)scale(.26458)"><tspan x="98.947" y="288.477">L1</tspan></text><path d="M49.826 95.329V73.92M47.991 95.395v-12.14" style="fill:none;stroke:#ccc;stroke-width:.264583px;stroke-linecap:butt;stroke-linejoin:miter;stroke-opacity:1"/><path d="M55.249 95.329h-5.423" style="fill:none;stroke:#000;stroke-width:.264583px;stroke-linecap:butt;stroke-linejoin:miter;stroke-opacity:1;marker-end:url(#a)"/><path d="M42.183 95.395h5.423" style="fill:none;stroke:#000;stroke-width:.264583px;stroke-linecap:butt;stroke-linejoin:miter;stroke-opacity:1;marker-end:url(#e)"/><text xml:space="preserve" style="font-size:14.6667px;line-height:1.25;font-family:sans-serif;white-space:pre;shape-inside:url(#f);display:inline" transform="translate(-42.819 -.03)scale(.26458)"><tspan x="338.922" y="381.947">E1</tspan></text><text xml:space="preserve" style="font-size:14.6667px;line-height:1.25;font-family:sans-serif;white-space:pre;shape-inside:url(#g);display:inline" transform="translate(32.08 .454)scale(.26458)"><tspan x="198.363" y="372.656">R1</tspan></text><path d="M115.717 84.56 89.765 94.82" style="fill:none;stroke:#000;stroke-width:.264583px;stroke-linecap:butt;stroke-linejoin:miter;stroke-opacity:1;marker-start:url(#a)"/><path d="M83.917 95.898 49.021 84.183" style="fill:none;stroke:#000;stroke-width:.264583px;stroke-linecap:butt;stroke-linejoin:miter;stroke-opacity:1;marker-end:url(#a)"/><path d="m117.72 83.09-23.036-4.068 1.39-3.766M47.991 64.851V53.063" style="fill:none;stroke:#ccc;stroke-width:.264583px;stroke-linecap:butt;stroke-linejoin:miter;stroke-opacity:1"/><path d="m66.653 53.752-18.8-.132" style="fill:none;stroke:#000;stroke-width:.264583px;stroke-linecap:butt;stroke-linejoin:miter;stroke-opacity:1;marker-start:url(#h);marker-end:url(#h)"/><text xml:space="preserve" style="font-size:14.6667px;line-height:1.25;font-family:sans-serif;white-space:pre;shape-inside:url(#i);display:inline" transform="translate(18.678 -23.831)scale(.26458)"><tspan x="135.76" y="287.449">H1</tspan></text><text xml:space="preserve" style="font-size:14.6667px;line-height:1.25;font-family:sans-serif;white-space:pre;shape-inside:url(#j);display:inline" transform="translate(30.03 -40.113)scale(.26458)"><tspan x="318.453" y="559.457">W1</tspan></text><path d="m112.466 104.708 5.434-4.398" style="fill:none;stroke:#000;stroke-width:.264583px;stroke-linecap:butt;stroke-linejoin:miter;stroke-opacity:1;marker-end:url(#a)"/></g></svg>