<svg xmlns="http://www.w3.org/2000/svg" width="141.18" height="191.89" viewBox="0 0 37.354 50.771"><defs><marker id="a" markerHeight="1" markerWidth="1" orient="auto-start-reverse" preserveAspectRatio="xMidYMid" refX="0" refY="0" style="overflow:visible" viewBox="0 0 1 1"><path d="M3-3 0 0l3 3" style="fill:none;stroke:context-stroke;stroke-width:1;stroke-linecap:butt" transform="rotate(180 .125 0)"/></marker><marker id="b" markerHeight="1" markerWidth="1" orient="auto-start-reverse" preserveAspectRatio="xMidYMid" refX="0" refY="0" style="overflow:visible" viewBox="0 0 1 1"><path d="M3-3 0 0l3 3" style="fill:none;stroke:context-stroke;stroke-width:1;stroke-linecap:butt" transform="rotate(180 .125 0)"/></marker><marker id="c" markerHeight="1" markerWidth="1" orient="auto-start-reverse" preserveAspectRatio="xMidYMid" refX="0" refY="0" style="overflow:visible" viewBox="0 0 1 1"><path d="M3-3 0 0l3 3" style="fill:none;stroke:context-stroke;stroke-width:1;stroke-linecap:butt" transform="rotate(180 .125 0)"/></marker><marker id="d" markerHeight="1" markerWidth="1" orient="auto-start-reverse" preserveAspectRatio="xMidYMid" refX="0" refY="0" style="overflow:visible" viewBox="0 0 1 1"><path d="M3-3 0 0l3 3" style="fill:none;stroke:context-stroke;stroke-width:1;stroke-linecap:butt" transform="rotate(180 .125 0)"/></marker><path id="h" d="M311.945 279.705h38.342v37.601h-38.342z"/><path id="g" d="M282.881 218.706h58.044v33.43h-58.044z"/><path id="f" d="M263.466 297.611h45.128v27.863h-45.128z"/><path id="e" d="M244.923 249.435h63.817v41.8h-63.817z"/></defs><path d="M22.458 25.723h37.089v50.506H22.458z" style="fill:#fff;stroke:#fff;stroke-width:.264583;stroke-linejoin:bevel" transform="translate(-22.326 -25.59)"/><path d="m25.949 33.504-.521 39.433 23.753.358.22-8.015-15.976-.19.688-31.732Z" style="fill:none;stroke:#000;stroke-width:.264583px;stroke-linecap:butt;stroke-linejoin:miter;stroke-opacity:1" transform="translate(-22.326 -25.59)"/><path d="M25.86 31.172h7.756" style="fill:none;stroke:#00f;stroke-width:.264583px;stroke-linecap:butt;stroke-linejoin:miter;stroke-opacity:1;marker-start:url(#a);marker-end:url(#a)" transform="translate(-22.326 -25.59)"/><path d="M33.86 61.823h15.386" style="fill:none;stroke:#00f;stroke-width:.264584px;stroke-linecap:butt;stroke-linejoin:miter;stroke-opacity:1;marker-start:url(#b);marker-end:url(#b)" transform="translate(-22.326 -25.59)"/><path d="M36.17 64.668V33.684" style="fill:none;stroke:#00f;stroke-width:.264584px;stroke-linecap:butt;stroke-linejoin:miter;stroke-opacity:1;marker-start:url(#c);marker-end:url(#c)" transform="translate(-22.326 -25.59)"/><path d="M51.948 73.404V65.09" style="fill:none;stroke:#00f;stroke-width:.264585px;stroke-linecap:butt;stroke-linejoin:miter;stroke-opacity:1;marker-start:url(#d);marker-end:url(#d)" transform="translate(-22.326 -25.59)"/><text xml:space="preserve" style="font-size:14.6667px;line-height:1.25;font-family:sans-serif;white-space:pre;shape-inside:url(#e);fill:#00f" transform="translate(-58.484 -64.78)scale(.26458)"><tspan x="244.922" y="262.412">C</tspan></text><text xml:space="preserve" style="font-size:14.6667px;line-height:1.25;font-family:sans-serif;white-space:pre;shape-inside:url(#f);fill:#00f" transform="translate(-39.594 -37.306)scale(.26458)"><tspan x="263.467" y="310.588">AB</tspan></text><text xml:space="preserve" style="font-size:14.6667px;line-height:1.25;font-family:sans-serif;white-space:pre;shape-inside:url(#g);fill:#00f" transform="translate(-59.616 -37.465)scale(.26458)"><tspan x="282.881" y="231.684">B</tspan></text><text xml:space="preserve" style="font-size:14.6667px;line-height:1.25;font-family:sans-serif;white-space:pre;shape-inside:url(#h);fill:#00f" transform="translate(-63.436 -41.763)scale(.26458)"><tspan x="311.945" y="292.682">E</tspan></text></svg>