<svg xmlns="http://www.w3.org/2000/svg" width="362.587" height="271.93" viewBox="0 0 95.935 71.948"><defs><path id="o" d="M423.643 404.875h97.941v33.678h-97.941z"/><path id="n" d="M244.961 387.088h109.693v28.313H244.961z"/><path id="l" d="M206.239 378.13h60.545v34.169h-60.545z"/><path id="j" d="M194.465 146.003h87.449v25.582h-87.449z"/><path id="e" d="M197.141 325.036h49.599v31.96h-49.599z"/><path id="d" d="M12.224 258.196h62.043v37.148H12.224z"/><path id="c" d="M15.299 180.795H64.08v32.226H15.299z"/><path id="b" d="M180.648 59.142h60.528v30.722h-60.528z"/><path id="i" d="M12.224 258.196h62.043v37.148H12.224z"/><marker id="a" markerHeight="1" markerWidth="1" orient="auto-start-reverse" preserveAspectRatio="xMidYMid" refX="0" refY="0" style="overflow:visible" viewBox="0 0 1 1"><path d="M3-3 0 0l3 3" style="fill:none;stroke:context-stroke;stroke-width:1;stroke-linecap:butt" transform="rotate(180 .125 0)"/></marker><marker id="f" markerHeight="1" markerWidth="1" orient="auto-start-reverse" preserveAspectRatio="xMidYMid" refX="0" refY="0" style="overflow:visible" viewBox="0 0 1 1"><path d="M3-3 0 0l3 3" style="fill:none;stroke:context-stroke;stroke-width:1;stroke-linecap:butt" transform="rotate(180 .125 0)"/></marker><marker id="g" markerHeight="1" markerWidth="1" orient="auto-start-reverse" preserveAspectRatio="xMidYMid" refX="0" refY="0" style="overflow:visible" viewBox="0 0 1 1"><path d="M3-3 0 0l3 3" style="fill:none;stroke:context-stroke;stroke-width:1;stroke-linecap:butt" transform="rotate(180 .125 0)"/></marker><marker id="h" markerHeight="1" markerWidth="1" orient="auto-start-reverse" preserveAspectRatio="xMidYMid" refX="0" refY="0" style="overflow:visible" viewBox="0 0 1 1"><path d="M3-3 0 0l3 3" style="fill:none;stroke:context-stroke;stroke-width:1;stroke-linecap:butt" transform="rotate(180 .125 0)"/></marker><marker id="k" markerHeight="1" markerWidth="1" orient="auto-start-reverse" preserveAspectRatio="xMidYMid" refX="0" refY="0" style="overflow:visible" viewBox="0 0 1 1"><path d="M3-3 0 0l3 3" style="fill:none;stroke:context-stroke;stroke-width:1;stroke-linecap:butt" transform="rotate(180 .125 0)"/></marker><marker id="m" markerHeight="1" markerWidth="1" orient="auto-start-reverse" preserveAspectRatio="xMidYMid" refX="0" refY="0" style="overflow:visible" viewBox="0 0 1 1"><path d="M3-3 0 0l3 3" style="fill:none;stroke:context-stroke;stroke-width:1;stroke-linecap:butt" transform="rotate(180 .125 0)"/></marker></defs><g transform="translate(-12.205 -19.864)"><path d="M12.337 19.996h95.67V91.68h-95.67z" style="fill:#fff;stroke:#fff;stroke-width:.264583;stroke-linejoin:bevel"/><path d="M27.88 35.39h61.654v41.817H27.88z" style="fill:none;stroke:green;stroke-width:.264583;stroke-linejoin:bevel"/><circle cx="58.707" cy="56.298" r="4.007" style="fill:none;stroke:green;stroke-width:.264583;stroke-linejoin:bevel"/><path d="M27.88 35.39v-9.646M89.534 35.257v-9.645M89.666 35.39h9.646M89.666 77.472h9.646" style="fill:none;stroke:#ccc;stroke-width:.264583px;stroke-linecap:butt;stroke-linejoin:miter;stroke-opacity:1"/><path d="m28.218 25.744 61.208-.132" style="fill:none;stroke:#000;stroke-width:.264583px;stroke-linecap:butt;stroke-linejoin:miter;stroke-opacity:1;marker-start:url(#a);marker-end:url(#a)"/><path d="m99.246 35.759.132 41.517" style="fill:none;stroke:#000;stroke-width:.264583px;stroke-linecap:butt;stroke-linejoin:miter;stroke-opacity:1;marker-start:url(#a);marker-end:url(#a)"/><text xml:space="preserve" style="font-size:14.6667px;line-height:1.25;font-family:sans-serif;white-space:pre;shape-inside:url(#b);display:inline" transform="translate(9.74 5.662)scale(.26458)"><tspan x="180.648" y="72.487">L1</tspan></text><text xml:space="preserve" style="font-size:14.6667px;line-height:1.25;font-family:sans-serif;white-space:pre;shape-inside:url(#c);display:inline" transform="translate(95.94 6.31)scale(.26458)"><tspan x="15.299" y="194.14">L2</tspan></text><text xml:space="preserve" style="font-size:14.6667px;line-height:1.25;font-family:sans-serif;white-space:pre;shape-inside:url(#d);display:inline" transform="translate(53.313 -.81)scale(.26458)"><tspan x="12.225" y="271.542">D1</tspan></text><text xml:space="preserve" style="font-style:normal;font-variant:normal;font-weight:400;font-stretch:normal;font-size:14.6667px;line-height:normal;font-family:&quot;Liberation Mono&quot;;-inkscape-font-specification:&quot;Liberation Mono&quot;;font-variant-ligatures:normal;font-variant-position:normal;font-variant-caps:normal;font-variant-numeric:normal;font-variant-alternates:normal;font-variant-east-asian:normal;font-feature-settings:normal;font-variation-settings:normal;text-indent:0;text-align:start;text-decoration-line:none;text-decoration-style:solid;text-decoration-color:#000;letter-spacing:normal;word-spacing:normal;text-transform:none;writing-mode:lr-tb;direction:ltr;text-orientation:mixed;dominant-baseline:auto;baseline-shift:baseline;white-space:pre;shape-inside:url(#e);shape-padding:0;shape-margin:0;inline-size:0;display:inline;opacity:1;vector-effect:none;fill:#000;fill-opacity:1;stroke:none;stroke-width:1;stroke-linecap:butt;stroke-linejoin:miter;stroke-miterlimit:4;stroke-dasharray:none;stroke-dashoffset:0;stroke-opacity:1;-inkscape-stroke:none;stop-color:#000;stop-opacity:1" transform="translate(-37.966 -37.46)scale(.26458)"><tspan x="197.141" y="338.085">Rc</tspan></text><path d="m27.1 75.995-8.473-23.04" style="fill:#fff;stroke:#999;stroke-width:.264583;marker-start:url(#a)"/><path d="m26.936 37.136-8.082 12.335" style="fill:#fff;stroke:#999;stroke-width:.264583;marker-start:url(#f)"/><circle cx="68.512" cy="56.298" r="1.933" style="fill:none;stroke:green;stroke-width:.264583;stroke-linejoin:bevel"/><path d="M54.7 56.298v10.543M62.714 56.298v10.543M66.58 56.298v10.543M70.445 56.298v10.543M62.714 45.756v10.542M66.58 45.756v10.542" style="fill:none;stroke:#b3b3b3;stroke-width:.264583"/><path d="M55.074 66.84h7.535" style="fill:none;stroke:#000;stroke-width:.264583;marker-start:url(#a);marker-end:url(#a)"/><path d="M66.926 66.84h3.407" style="fill:none;stroke:#000;stroke-width:.264583;marker-start:url(#g);marker-end:url(#g)"/><path d="M62.714 45.756h3.538" style="fill:none;stroke:#000;stroke-width:.264583;marker-start:url(#h);marker-end:url(#h)"/><text xml:space="preserve" style="font-size:14.6667px;line-height:1.25;font-family:sans-serif;white-space:pre;shape-inside:url(#i);display:inline" transform="translate(63.062 -.81)scale(.26458)"><tspan x="12.225" y="271.542">D2</tspan></text><text xml:space="preserve" style="font-size:14.6667px;line-height:normal;font-family:&quot;Liberation Mono&quot;;-inkscape-font-specification:&quot;Liberation Mono&quot;;text-align:center;text-decoration-color:#000;white-space:pre;shape-inside:url(#j);display:inline;fill:#a80;stroke-width:1;-inkscape-stroke:none;stop-color:#000" transform="translate(1.566 1.98)scale(.26458)"><tspan x="198.583" y="159.052">(D1+D2)/4</tspan></text><path d="M32.395 39.904h52.36v32.524h-52.36z" style="fill:none;stroke:green;stroke-width:.264583;stroke-linejoin:bevel"/><path d="M42.93 72.307V66.6" style="fill:none;stroke:#000;stroke-width:.264583;marker-start:url(#a)"/><path d="M42.93 77.576v5.707" style="fill:none;stroke:#000;stroke-width:.264583;marker-start:url(#k)"/><text xml:space="preserve" style="font-size:14.6667px;line-height:normal;font-family:&quot;Liberation Mono&quot;;-inkscape-font-specification:&quot;Liberation Mono&quot;;text-align:center;text-decoration-color:#000;white-space:pre;shape-inside:url(#l);display:inline;fill:#000;stroke-width:1;-inkscape-stroke:none;stop-color:#000" transform="translate(-19.554 -16.445)scale(.26458)"><tspan x="227.71" y="391.181">W1</tspan></text><path d="m84.273 73.323-8.472 13.612" style="fill:#fff;stroke:#999;stroke-width:.264583;marker-start:url(#m)"/><text xml:space="preserve" style="font-size:14.6667px;line-height:normal;font-family:&quot;Liberation Mono&quot;;-inkscape-font-specification:&quot;Liberation Mono&quot;;text-align:center;text-decoration-color:#000;white-space:pre;shape-inside:url(#n);display:inline;fill:#a80;stroke-width:1;-inkscape-stroke:none;stop-color:#000" transform="translate(-3.695 -15.761)scale(.26458)"><tspan x="277.804" y="400.138">Rc-W1</tspan></text><text xml:space="preserve" style="font-size:14.6667px;line-height:normal;font-family:&quot;Liberation Mono&quot;;-inkscape-font-specification:&quot;Liberation Mono&quot;;text-align:center;text-decoration-color:#000;white-space:pre;shape-inside:url(#o);display:inline;fill:#000;stroke-width:1;-inkscape-stroke:none;stop-color:#000" transform="translate(-80.177 -62.667)scale(.26458)"><tspan x="446.209" y="417.925">holes?</tspan></text><path d="m51.266 47.991 4.208 5.068" style="fill:none;stroke:#000;stroke-width:.264583;marker-end:url(#a)"/><path d="m51.39 46.87 14.392 7.956" style="fill:none;stroke:#000;stroke-width:.264583;marker-end:url(#a)"/></g></svg>