<svg xmlns="http://www.w3.org/2000/svg" width="362.587" height="271.93" viewBox="0 0 95.935 71.948"><defs><path id="h" d="M217.169 514.475h65.29v23.014h-65.29z"/><path id="f" d="M465.43 704.66h79.114v52.307H465.43z"/><path id="e" d="M433.287 792.659h70.908v58.254h-70.908z"/><path id="d" d="M286.066 779.609h87.692v64.597h-87.692z"/><path id="c" d="M160.361 766.559h86.88v53.487h-86.88z"/><path id="g" d="M465.43 704.66h79.114v52.307H465.43z"/><marker id="a" markerHeight="1" markerWidth="1" orient="auto-start-reverse" preserveAspectRatio="xMidYMid" refX="0" refY="0" style="overflow:visible" viewBox="0 0 1 1"><path d="M3-3 0 0l3 3" style="fill:none;stroke:context-stroke;stroke-width:1;stroke-linecap:butt" transform="rotate(180 .125 0)"/></marker><marker id="b" markerHeight="1" markerWidth="1" orient="auto-start-reverse" preserveAspectRatio="xMidYMid" refX="0" refY="0" style="overflow:visible" viewBox="0 0 1 1"><path d="M3-3 0 0l3 3" style="fill:none;stroke:context-stroke;stroke-width:1;stroke-linecap:butt" transform="rotate(180 .125 0)"/></marker></defs><path d="M18.838 112.791h95.67v71.684h-95.67z" style="fill:#fff;stroke:#fff;stroke-width:.264583;stroke-linejoin:bevel" transform="translate(-18.706 -112.659)"/><path d="M60.026 159.744h10.78v5.714h-10.78Z" style="fill:none;stroke:#c6e9af;stroke-width:.264583" transform="translate(-18.706 -112.659)"/><path d="M42.682 131.947h7.067v27.797h31.334v-27.797h7.066v33.511H42.682Z" style="fill:none;stroke:green;stroke-width:.264583" transform="translate(-18.706 -112.659)"/><path d="M42.682 122.09v9.724M49.749 122.223v9.724M60.026 150.02v9.724M70.805 150.02v9.724M97.873 131.947h-9.724M98.005 165.458h-9.723M42.55 165.458h-9.724M42.34 159.744h-9.723M42.682 165.59v9.724M88.15 165.59v9.724" style="fill:none;stroke:#b3b3b3;stroke-width:.264583" transform="translate(-18.706 -112.659)"/><path d="m97.873 131.947.132 33.511" style="fill:none;stroke:#000;stroke-width:.264583;marker-start:url(#a);marker-end:url(#a)" transform="translate(-18.706 -112.659)"/><path d="M60.026 150.02h10.78" style="fill:none;stroke:#000;stroke-width:.264583;marker-start:url(#a);marker-end:url(#a)" transform="translate(-18.706 -112.659)"/><path d="M42.682 175.314H88.15" style="fill:none;stroke:#000;stroke-width:.264583;marker-start:url(#a);marker-end:url(#a)" transform="translate(-18.706 -112.659)"/><path d="m42.682 122.09 7.067.133" style="fill:none;stroke:#000;stroke-width:.264583;marker-start:url(#a);marker-end:url(#a)" transform="translate(-18.706 -112.659)"/><path d="m32.694 159.843.132 5.45" style="fill:none;stroke:#000;stroke-width:.264583;marker-start:url(#b);marker-end:url(#b)" transform="translate(-18.706 -112.659)"/><text xml:space="preserve" style="font-size:14.6667px;line-height:normal;font-family:&quot;Liberation Mono&quot;;-inkscape-font-specification:&quot;Liberation Mono&quot;;text-align:center;text-decoration-color:#000;white-space:pre;shape-inside:url(#c);display:inline;fill:#000;stroke-width:1;-inkscape-stroke:none;stop-color:#000" transform="translate(-26.123 -197.746)scale(.26458)"><tspan x="194.999" y="779.609">W1</tspan></text><text xml:space="preserve" style="font-size:14.6667px;line-height:normal;font-family:&quot;Liberation Mono&quot;;-inkscape-font-specification:&quot;Liberation Mono&quot;;text-align:center;text-decoration-color:#000;white-space:pre;shape-inside:url(#d);display:inline;fill:#000;stroke-width:1;-inkscape-stroke:none;stop-color:#000" transform="translate(-40.224 -173.451)scale(.26458)"><tspan x="321.111" y="792.659">D1</tspan></text><text xml:space="preserve" style="font-size:14.6667px;line-height:normal;font-family:&quot;Liberation Mono&quot;;-inkscape-font-specification:&quot;Liberation Mono&quot;;text-align:center;text-decoration-color:#000;white-space:pre;shape-inside:url(#e);display:inline;fill:#000;stroke-width:1;-inkscape-stroke:none;stop-color:#000" transform="translate(-76.59 -146.621)scale(.26458)"><tspan x="459.94" y="805.71">L2</tspan></text><text xml:space="preserve" style="font-size:14.6667px;line-height:normal;font-family:&quot;Liberation Mono&quot;;-inkscape-font-specification:&quot;Liberation Mono&quot;;text-align:center;text-decoration-color:#000;white-space:pre;shape-inside:url(#f);display:inline;fill:#000;stroke-width:1;-inkscape-stroke:none;stop-color:#000" transform="translate(-51.392 -152.124)scale(.26458)"><tspan x="496.185" y="717.71">H1</tspan></text><text xml:space="preserve" style="font-size:14.6667px;line-height:normal;font-family:&quot;Liberation Mono&quot;;-inkscape-font-specification:&quot;Liberation Mono&quot;;text-align:center;text-decoration-color:#000;white-space:pre;shape-inside:url(#g);display:inline;fill:#000;stroke-width:1;-inkscape-stroke:none;stop-color:#000" transform="translate(-123.106 -139.192)scale(.26458)"><tspan x="496.185" y="717.71">H2</tspan></text><text xml:space="preserve" style="font-size:14.6667px;line-height:normal;font-family:&quot;Liberation Mono&quot;;-inkscape-font-specification:&quot;Liberation Mono&quot;;text-align:center;text-decoration-color:#000;white-space:pre;shape-inside:url(#h);display:inline;fill:#000;stroke-width:1;-inkscape-stroke:none;stop-color:#000" transform="translate(-18.706 -112.659)scale(.26458)"><tspan x="223.41" y="527.525">holes?</tspan></text><path d="M72.74 139.04s4.071 6.337 4.842 9.941c.83 3.878 1.961 8.69-.379 11.891-1.066 1.459-5.11 1.81-5.11 1.81" style="fill:none;stroke:#000;stroke-width:.264583;marker-end:url(#a)" transform="translate(-18.706 -112.659)"/></svg>