<svg xmlns="http://www.w3.org/2000/svg" width="600" height="3000" viewBox="0 0 158.75 793.75"><defs><path id="r" d="M124.108 583.321h53.364v54.6h-53.364z"/><path id="q" d="M292.574 300.188h38.048v31.543h-38.048z"/><path id="p" d="M25.984 308.282h56.392v36.738H25.984z"/><path id="n" d="M31.989 525.912h31.423v23.511H31.989z"/><path id="l" d="M34.108 523.506h30.539v27.952H34.108z"/><path id="g" d="M305.871 514.957h42.53v30.95h-42.53z"/><path id="f" d="M304.431 465.659h54.401v31.352h-54.401z"/><path id="c" d="M165 285.133h53.013v30.061H165z"/><path id="b" d="M278.533 382.452h52.563V427.5h-52.563z"/><path id="a" d="M18.329 20.92h215.965v61.919H18.329z"/><path id="m" d="M34.108 523.506h30.539v27.952H34.108z"/><path id="o" d="M31.989 525.912h31.423v23.511H31.989z"/><marker id="e" markerHeight="1" markerWidth="1" orient="auto-start-reverse" preserveAspectRatio="xMidYMid" refX="0" refY="0" style="overflow:visible" viewBox="0 0 1 1"><path d="M3-3 0 0l3 3" style="fill:none;stroke:context-stroke;stroke-width:1;stroke-linecap:butt" transform="rotate(180 .125 0)"/></marker><marker id="d" markerHeight="1" markerWidth="1" orient="auto-start-reverse" preserveAspectRatio="xMidYMid" refX="0" refY="0" style="overflow:visible" viewBox="0 0 1 1"><path d="M3-3 0 0l3 3" style="fill:none;stroke:context-stroke;stroke-width:1;stroke-linecap:butt" transform="rotate(180 .125 0)"/></marker><marker id="h" markerHeight="1" markerWidth="1" orient="auto-start-reverse" preserveAspectRatio="xMidYMid" refX="0" refY="0" style="overflow:visible" viewBox="0 0 1 1"><path d="M3-3 0 0l3 3" style="fill:none;stroke:context-stroke;stroke-width:1;stroke-linecap:butt" transform="rotate(180 .125 0)"/></marker><marker id="i" markerHeight="1" markerWidth="1" orient="auto-start-reverse" preserveAspectRatio="xMidYMid" refX="0" refY="0" style="overflow:visible" viewBox="0 0 1 1"><path d="M3-3 0 0l3 3" style="fill:none;stroke:context-stroke;stroke-width:1;stroke-linecap:butt" transform="rotate(180 .125 0)"/></marker><marker id="j" markerHeight="1" markerWidth="1" orient="auto-start-reverse" preserveAspectRatio="xMidYMid" refX="0" refY="0" style="overflow:visible" viewBox="0 0 1 1"><path d="M3-3 0 0l3 3" style="fill:none;stroke:context-stroke;stroke-width:1;stroke-linecap:butt" transform="rotate(180 .125 0)"/></marker><marker id="k" markerHeight="1" markerWidth="1" orient="auto-start-reverse" preserveAspectRatio="xMidYMid" refX="0" refY="0" style="overflow:visible" viewBox="0 0 1 1"><path d="M3-3 0 0l3 3" style="fill:none;stroke:context-stroke;stroke-width:1;stroke-linecap:butt" transform="rotate(180 .125 0)"/></marker></defs><path d="M23.552 76.791h82.019v72.898H23.552z" style="fill:none;stroke:#fff;stroke-width:.264583;stroke-linejoin:bevel"/><text xml:space="preserve" style="font-size:14.6667px;line-height:1.25;font-family:sans-serif;white-space:pre;shape-inside:url(#a)" transform="scale(.26458)"><tspan x="18.33" y="33.897">pencil_holder.ts</tspan></text><path d="M19.138 33.015h7.938v10.583h-7.938zM27.075 22.431h2.646v10.583h-2.646zM29.721 33.015h7.938v10.583h-7.938zM37.659 22.431h2.646v10.583h-2.646zM40.304 33.015h7.938v10.583h-7.938z" style="fill:none;stroke:#1a1a1a;stroke-width:.264583;stroke-linejoin:bevel"/><path d="M43.598-58.825h2.646v10.583h-2.646z" style="fill:none;stroke:#1a1a1a;stroke-width:.264583;stroke-linejoin:bevel" transform="rotate(90)"/><path d="M19.138 46.244h7.938v10.583h-7.938zM29.721 46.244h7.938v10.583h-7.938zM40.304 46.244h7.938v10.583h-7.938z" style="fill:none;stroke:#1a1a1a;stroke-width:.264583;stroke-linejoin:bevel"/><path d="M53.567 98.743h7.938v10.583h-7.938zM64.15 98.743h7.938v10.583H64.15zM74.733 98.743h7.938v10.583h-7.938zM53.567 111.972h7.938v10.583h-7.938zM64.15 111.972h7.938v10.583H64.15zM74.733 111.972h7.938v10.583h-7.938z" style="fill:none;stroke:#00f;stroke-width:.264583;stroke-linejoin:bevel"/><path d="M48.217 93.806h39.804v33.686H48.217z" style="fill:none;stroke:#00f;stroke-width:.264583;stroke-linejoin:bevel"/><text xml:space="preserve" style="font-size:14.6667px;line-height:1.25;font-family:sans-serif;white-space:pre;shape-inside:url(#b)" transform="translate(20.361 4.154)scale(.26458)"><tspan x="278.533" y="395.428">Ny</tspan></text><text xml:space="preserve" style="font-size:14.6667px;line-height:1.25;font-family:sans-serif;white-space:pre;shape-inside:url(#c)" transform="translate(20.361 4.154)scale(.26458)"><tspan x="165" y="298.109">Nx</tspan></text><path d="m58.55 97.972 7-13.59" style="fill:none;stroke:#000;stroke-width:.264583px;stroke-linecap:butt;stroke-linejoin:miter;stroke-opacity:1;marker-start:url(#d)"/><path d="M67.857 97.644c-.156-.657-1.868-13.418-1.868-13.418" style="fill:none;stroke:#000;stroke-width:.264583px;stroke-linecap:butt;stroke-linejoin:miter;stroke-opacity:1;marker-start:url(#d)"/><path d="M77.278 97.882 66.902 84.333" style="fill:none;stroke:#000;stroke-width:.264583px;stroke-linecap:butt;stroke-linejoin:miter;stroke-opacity:1;marker-start:url(#d)"/><path d="m83.148 103.091 10.194 4.15" style="fill:none;stroke:#000;stroke-width:.264583px;stroke-linecap:butt;stroke-linejoin:miter;stroke-opacity:1;marker-start:url(#d)"/><path d="m83.404 117.057 10.072-7.95" style="fill:none;stroke:#000;stroke-width:.264583px;stroke-linecap:butt;stroke-linejoin:miter;stroke-opacity:1;marker-start:url(#d)"/><path d="M53.567 109.326H39.413M53.434 111.972H39.281M61.504 122.555v14.154M64.15 122.688v14.153M53.567 122.555H34.063M48.217 127.492H34.063M88.02 127.625v14.153M82.803 122.555v19.223" style="fill:none;stroke:#b3b3b3;stroke-width:.264583px;stroke-linecap:butt;stroke-linejoin:miter;stroke-opacity:1"/><path d="M53.567 106.68h7.937" style="fill:none;stroke:#000;stroke-width:.264583px;stroke-linecap:butt;stroke-linejoin:miter;stroke-opacity:1;marker-start:url(#e);marker-end:url(#e)"/><path d="M66.002 98.743v10.583" style="fill:none;stroke:#000;stroke-width:.264583px;stroke-linecap:butt;stroke-linejoin:miter;stroke-opacity:1;marker-start:url(#e);marker-end:url(#e)"/><text xml:space="preserve" style="font-size:14.6667px;line-height:1.25;font-family:sans-serif;white-space:pre;shape-inside:url(#f)" transform="translate(-24.845 -21.063)scale(.26458)"><tspan x="304.432" y="478.637">Lx</tspan></text><text xml:space="preserve" style="font-size:14.6667px;line-height:1.25;font-family:sans-serif;white-space:pre;shape-inside:url(#g)" transform="translate(-14.208 -34.804)scale(.26458)"><tspan x="305.871" y="527.934">Ly</tspan></text><path d="M34.063 122.555v4.937" style="fill:none;stroke:#000;stroke-width:.264583px;stroke-linecap:butt;stroke-linejoin:miter;stroke-opacity:1;marker-start:url(#e);marker-end:url(#e)"/><path d="M82.803 141.778h5.217" style="fill:none;stroke:#000;stroke-width:.264583px;stroke-linecap:butt;stroke-linejoin:miter;stroke-opacity:1;marker-start:url(#e);marker-end:url(#e)"/><path d="M39.978 112.029v4.937" style="fill:none;stroke:#000;stroke-width:.264583px;stroke-linecap:butt;stroke-linejoin:miter;stroke-opacity:1;marker-start:url(#h)"/><path d="M39.907 109.1v-4.937" style="fill:none;stroke:#000;stroke-width:.264583px;stroke-linecap:butt;stroke-linejoin:miter;stroke-opacity:1;marker-start:url(#i)"/><path d="M64.15 136.841h4.937" style="fill:none;stroke:#000;stroke-width:.264583px;stroke-linecap:butt;stroke-linejoin:miter;stroke-opacity:1;marker-start:url(#j)"/><path d="M61.271 136.841h-4.937" style="fill:none;stroke:#000;stroke-width:.264583px;stroke-linecap:butt;stroke-linejoin:miter;stroke-opacity:1;marker-start:url(#k)"/><text xml:space="preserve" style="font-size:14.6667px;line-height:1.25;font-family:sans-serif;white-space:pre;shape-inside:url(#l)" transform="translate(23.445 -29.88)scale(.26458)"><tspan x="34.107" y="536.482">E1</tspan></text><text xml:space="preserve" style="font-size:14.6667px;line-height:1.25;font-family:sans-serif;white-space:pre;shape-inside:url(#m);display:inline" transform="translate(51.435 -.025)scale(.26458)"><tspan x="34.107" y="536.482">E1</tspan></text><text xml:space="preserve" style="font-size:14.6667px;line-height:1.25;font-family:sans-serif;white-space:pre;shape-inside:url(#n)" transform="translate(18.545 -16.061)scale(.26458)"><tspan x="31.99" y="538.889">E2</tspan></text><text xml:space="preserve" style="font-size:14.6667px;line-height:1.25;font-family:sans-serif;white-space:pre;shape-inside:url(#o);display:inline" transform="translate(74.625 4.11)scale(.26458)"><tspan x="31.99" y="538.889">E2</tspan></text><text xml:space="preserve" style="font-size:14.6667px;line-height:1.25;font-family:sans-serif;white-space:pre;shape-inside:url(#p)" transform="translate(20.361 4.154)scale(.26458)"><tspan x="25.984" y="321.26">R1</tspan></text><text xml:space="preserve" style="font-size:14.6667px;line-height:1.25;font-family:sans-serif;white-space:pre;shape-inside:url(#q)" transform="translate(20.361 4.154)scale(.26458)"><tspan x="292.574" y="313.164">R2</tspan></text><path d="m32.843 89.519 19.493 8.662" style="fill:none;stroke:#000;stroke-width:.264583px;stroke-linecap:butt;stroke-linejoin:miter;stroke-opacity:1;marker-end:url(#e)"/><path d="m97.078 87.21-8.582 6.102" style="fill:none;stroke:#000;stroke-width:.264583px;stroke-linecap:butt;stroke-linejoin:miter;stroke-opacity:1;marker-end:url(#e)"/><path d="m93.83 139.452 5.612-5.223" style="fill:none;stroke:#000;stroke-width:.264583px;stroke-linecap:butt;stroke-linejoin:miter;stroke-opacity:1;marker-end:url(#e)"/><text xml:space="preserve" style="font-size:14.6667px;line-height:1.25;font-family:sans-serif;white-space:pre;shape-inside:url(#r)" transform="translate(63.043 -16.504)scale(.26458)"><tspan x="124.107" y="596.297">H1</tspan></text></svg>