<svg xmlns="http://www.w3.org/2000/svg" width="600" height="3000" viewBox="0 0 158.75 793.75"><defs><path id="i" d="M475.747 344.289h41.615v40.521h-41.615z"/><path id="h" d="M326.15 66.959h132.34v55.04H326.15z"/><path id="g" d="M322.844 86.09h41.397v24.573h-41.397z"/><path id="f" d="M277.91 194.976h36.921v25.208H277.91z"/><path id="e" d="M282.637 190.799h29.793v23.737h-29.793z"/><path id="a" d="M29.077 17.244h222.601v51.503H29.077z"/><marker id="c" markerHeight="1" markerWidth="1" orient="auto-start-reverse" preserveAspectRatio="xMidYMid" refX="0" refY="0" style="overflow:visible" viewBox="0 0 1 1"><path d="M3-3 0 0l3 3" style="fill:none;stroke:context-stroke;stroke-width:1;stroke-linecap:butt" transform="rotate(180 .125 0)"/></marker><marker id="b" markerHeight="1" markerWidth="1" orient="auto-start-reverse" preserveAspectRatio="xMidYMid" refX="0" refY="0" style="overflow:visible" viewBox="0 0 1 1"><path d="M3-3 0 0l3 3" style="fill:none;stroke:context-stroke;stroke-width:1;stroke-linecap:butt" transform="rotate(180 .125 0)"/></marker><marker id="d" markerHeight="1" markerWidth="1" orient="auto-start-reverse" preserveAspectRatio="xMidYMid" refX="0" refY="0" style="overflow:visible" viewBox="0 0 1 1"><path d="M3-3 0 0l3 3" style="fill:none;stroke:context-stroke;stroke-width:1;stroke-linecap:butt" transform="rotate(180 .125 0)"/></marker></defs><path d="M29.617 20.566h72.331v70.626H29.617z" style="fill:#fff;stroke:#fff;stroke-width:.264583;stroke-linejoin:bevel"/><path d="M67.244 55.646h8.093M66.964 59.06h8.093" style="fill:none;stroke:#ccc;stroke-width:.264583px;stroke-linecap:butt;stroke-linejoin:miter;stroke-opacity:1"/><text xml:space="preserve" style="font-size:14.6667px;line-height:1.25;font-family:sans-serif;white-space:pre;shape-inside:url(#a)" transform="scale(.26458)"><tspan x="29.078" y="30.221">spiral.svg</tspan></text><path d="M56.8 69.278a10.228 10.308 0 0 1 10.151-10.224" style="fill:none;stroke:teal;stroke-width:.264583;stroke-linejoin:bevel"/><path d="M-85.196 72.76a16.002 16.127 0 0 1 15.882-15.996" style="fill:none;stroke:teal;stroke-width:.264583;stroke-linejoin:bevel" transform="rotate(-90)"/><path d="M-92.899-64.245a20.959 21.123 0 0 1 20.801-20.95" style="fill:none;stroke:teal;stroke-width:.264583;stroke-linejoin:bevel" transform="scale(-1)"/><path d="M67.084 63.892h5.57v5.57h-5.57z" style="fill:none;stroke:#e6e6e6;stroke-width:.264583;stroke-linejoin:bevel"/><path d="M38.484-66.953A25.956 26.158 0 0 1 64.244-92.9" style="fill:none;stroke:teal;stroke-width:.264583;stroke-linejoin:bevel" transform="rotate(90)"/><path d="M36.815 69.397a30.913 31.154 0 0 1 30.68-30.9" style="fill:none;stroke:teal;stroke-width:.264583;stroke-linejoin:bevel"/><path d="M73.831 55.754v3.308" style="fill:none;stroke:#1a1a1a;stroke-width:.264584px;stroke-linecap:butt;stroke-linejoin:miter;stroke-opacity:1;marker-start:url(#b);marker-end:url(#b)"/><path d="M53.43 69.56a13.92 14.029 0 0 1 13.814-13.914" style="fill:none;stroke:teal;stroke-width:.264583;stroke-linejoin:bevel"/><path d="M-88.071 72.118a18.673 18.82 0 0 1 18.533-18.666" style="fill:none;stroke:teal;stroke-width:.264583;stroke-linejoin:bevel" transform="rotate(-90)"/><path d="M-96.159-63.859a24.222 24.412 0 0 1 24.04-24.213" style="fill:none;stroke:teal;stroke-width:.264583;stroke-linejoin:bevel" transform="scale(-1)"/><path d="M35.287-67.387a28.77 28.995 0 0 1 28.555-28.76" style="fill:none;stroke:teal;stroke-width:.264583;stroke-linejoin:bevel" transform="rotate(90)"/><path d="M33.504 69.426a34.146 34.413 0 0 1 33.89-34.133" style="fill:none;stroke:teal;stroke-width:.264583;stroke-linejoin:bevel"/><path d="M36.812 69.399a1.653 1.668 0 0 1-1.71 1.596 1.653 1.668 0 0 1-1.594-1.713" style="fill:none;stroke:teal;stroke-width:.264583;stroke-linejoin:bevel"/><path d="M-55.647 67.034a1.707 1.668 0 0 1-1.765 1.597 1.707 1.668 0 0 1-1.647-1.713" style="fill:none;stroke:teal;stroke-width:.264583;stroke-linejoin:bevel" transform="rotate(-90)"/><path d="m66.964 59.09.12 10.373" style="fill:none;stroke:#1a1a1a;stroke-width:.264585px;stroke-linecap:butt;stroke-linejoin:miter;stroke-opacity:1;marker-start:url(#c);marker-end:url(#c)"/><path d="m66.881 38.586.267 16.868" style="fill:none;stroke:#1a1a1a;stroke-width:.264584px;stroke-linecap:butt;stroke-linejoin:miter;stroke-opacity:1;marker-start:url(#d);marker-end:url(#d)"/><text xml:space="preserve" style="font-size:14.6667px;line-height:1.25;font-family:sans-serif;white-space:pre;shape-inside:url(#e)" transform="translate(1.867 5.095)scale(.26458)"><tspan x="282.637" y="203.775">W1</tspan></text><text xml:space="preserve" style="font-size:14.6667px;line-height:1.25;font-family:sans-serif;white-space:pre;shape-inside:url(#f)" transform="translate(-11.28 10.883)scale(.26458)"><tspan x="277.91" y="207.953">E1</tspan></text><text xml:space="preserve" style="font-size:14.6667px;line-height:1.25;font-family:sans-serif;white-space:pre;shape-inside:url(#g)" transform="translate(-17.669 22.117)scale(.26458)"><tspan x="322.844" y="99.066">E2</tspan></text><text xml:space="preserve" style="font-size:14.6667px;line-height:1.25;font-family:sans-serif;white-space:pre;shape-inside:url(#h)" transform="translate(-29.854 5.228)scale(.26458)"><tspan x="326.15" y="79.936">QuadrantNb</tspan></text><path d="M61.773 27.351 52.9 40.448" style="fill:none;stroke:#000;stroke-width:.264583px;stroke-linecap:butt;stroke-linejoin:miter;stroke-opacity:1;marker-end:url(#c)"/><path d="m70.747 27.302 8.14 11.599" style="fill:none;stroke:#000;stroke-width:.264583px;stroke-linecap:butt;stroke-linejoin:miter;stroke-opacity:1;marker-end:url(#c)"/><text xml:space="preserve" style="font-size:14.6667px;line-height:1.25;font-family:sans-serif;white-space:pre;shape-inside:url(#i)" transform="translate(-30.874 -5.98)scale(.26458)"><tspan x="475.746" y="357.266">H1</tspan></text><path d="m91.814 85.626 5.922-2.475" style="fill:none;stroke:#000;stroke-width:.264583px;stroke-linecap:butt;stroke-linejoin:miter;stroke-opacity:1;marker-end:url(#c)"/></svg>