<svg xmlns="http://www.w3.org/2000/svg" width="600" height="2000" viewBox="0 0 158.75 529.167"><defs><path id="w" d="M217.169 514.475h65.29v23.014h-65.29z"/><path id="v" d="M423.643 404.875h97.941v33.678h-97.941z"/><path id="t" d="M465.43 704.66h79.114v52.307H465.43z"/><path id="s" d="M433.287 792.659h70.908v58.254h-70.908z"/><path id="r" d="M286.066 779.609h87.692v64.597h-87.692z"/><path id="q" d="M160.361 766.559h86.88v53.487h-86.88z"/><path id="o" d="M244.961 387.088h109.693v28.313H244.961z"/><path id="m" d="M206.239 378.13h60.545v34.169h-60.545z"/><path id="k" d="M194.465 146.003h87.449v25.582h-87.449z"/><path id="f" d="M197.141 325.036h49.599v31.96h-49.599z"/><path id="e" d="M12.224 258.196h62.043v37.148H12.224z"/><path id="d" d="M15.299 180.795H64.08v32.226H15.299z"/><path id="c" d="M180.648 59.142h60.528v30.722h-60.528z"/><path id="a" d="M20.621 18.595h254.251v36.954H20.621z"/><path id="j" d="M12.224 258.196h62.043v37.148H12.224z"/><path id="u" d="M465.43 704.66h79.114v52.307H465.43z"/><marker id="b" markerHeight="1" markerWidth="1" orient="auto-start-reverse" preserveAspectRatio="xMidYMid" refX="0" refY="0" style="overflow:visible" viewBox="0 0 1 1"><path d="M3-3 0 0l3 3" style="fill:none;stroke:context-stroke;stroke-width:1;stroke-linecap:butt" transform="rotate(180 .125 0)"/></marker><marker id="g" markerHeight="1" markerWidth="1" orient="auto-start-reverse" preserveAspectRatio="xMidYMid" refX="0" refY="0" style="overflow:visible" viewBox="0 0 1 1"><path d="M3-3 0 0l3 3" style="fill:none;stroke:context-stroke;stroke-width:1;stroke-linecap:butt" transform="rotate(180 .125 0)"/></marker><marker id="h" markerHeight="1" markerWidth="1" orient="auto-start-reverse" preserveAspectRatio="xMidYMid" refX="0" refY="0" style="overflow:visible" viewBox="0 0 1 1"><path d="M3-3 0 0l3 3" style="fill:none;stroke:context-stroke;stroke-width:1;stroke-linecap:butt" transform="rotate(180 .125 0)"/></marker><marker id="i" markerHeight="1" markerWidth="1" orient="auto-start-reverse" preserveAspectRatio="xMidYMid" refX="0" refY="0" style="overflow:visible" viewBox="0 0 1 1"><path d="M3-3 0 0l3 3" style="fill:none;stroke:context-stroke;stroke-width:1;stroke-linecap:butt" transform="rotate(180 .125 0)"/></marker><marker id="l" markerHeight="1" markerWidth="1" orient="auto-start-reverse" preserveAspectRatio="xMidYMid" refX="0" refY="0" style="overflow:visible" viewBox="0 0 1 1"><path d="M3-3 0 0l3 3" style="fill:none;stroke:context-stroke;stroke-width:1;stroke-linecap:butt" transform="rotate(180 .125 0)"/></marker><marker id="n" markerHeight="1" markerWidth="1" orient="auto-start-reverse" preserveAspectRatio="xMidYMid" refX="0" refY="0" style="overflow:visible" viewBox="0 0 1 1"><path d="M3-3 0 0l3 3" style="fill:none;stroke:context-stroke;stroke-width:1;stroke-linecap:butt" transform="rotate(180 .125 0)"/></marker><marker id="p" markerHeight="1" markerWidth="1" orient="auto-start-reverse" preserveAspectRatio="xMidYMid" refX="0" refY="0" style="overflow:visible" viewBox="0 0 1 1"><path d="M3-3 0 0l3 3" style="fill:none;stroke:context-stroke;stroke-width:1;stroke-linecap:butt" transform="rotate(180 .125 0)"/></marker></defs><path d="M18.838 112.791h95.67v71.684h-95.67zM12.337 19.996h95.67V91.68h-95.67z" style="fill:#fff;stroke:#fff;stroke-width:.264583;stroke-linejoin:bevel"/><text xml:space="preserve" style="font-size:14.6667px;line-height:1.25;font-family:sans-serif;white-space:pre;shape-inside:url(#a);display:inline" transform="scale(.26458)"><tspan x="20.621" y="31.941">src_myBox.svg</tspan></text><path d="M27.88 35.39h61.654v41.817H27.88z" style="fill:none;stroke:green;stroke-width:.264583;stroke-linejoin:bevel"/><circle cx="58.707" cy="56.298" r="4.007" style="fill:none;stroke:green;stroke-width:.264583;stroke-linejoin:bevel"/><path d="M27.88 35.39v-9.646M89.534 35.257v-9.645M89.666 35.39h9.646M89.666 77.472h9.646" style="fill:none;stroke:#ccc;stroke-width:.264583px;stroke-linecap:butt;stroke-linejoin:miter;stroke-opacity:1"/><path d="m28.218 25.744 61.208-.132" style="fill:none;stroke:#000;stroke-width:.264583px;stroke-linecap:butt;stroke-linejoin:miter;stroke-opacity:1;marker-start:url(#b);marker-end:url(#b)"/><path d="m99.246 35.759.132 41.517" style="fill:none;stroke:#000;stroke-width:.264583px;stroke-linecap:butt;stroke-linejoin:miter;stroke-opacity:1;marker-start:url(#b);marker-end:url(#b)"/><text xml:space="preserve" style="font-size:14.6667px;line-height:1.25;font-family:sans-serif;white-space:pre;shape-inside:url(#c);display:inline" transform="translate(9.74 5.662)scale(.26458)"><tspan x="180.648" y="72.487">L1</tspan></text><text xml:space="preserve" style="font-size:14.6667px;line-height:1.25;font-family:sans-serif;white-space:pre;shape-inside:url(#d);display:inline" transform="translate(95.94 6.31)scale(.26458)"><tspan x="15.299" y="194.14">L2</tspan></text><text xml:space="preserve" style="font-size:14.6667px;line-height:1.25;font-family:sans-serif;white-space:pre;shape-inside:url(#e);display:inline" transform="translate(53.313 -.81)scale(.26458)"><tspan x="12.225" y="271.542">D1</tspan></text><text xml:space="preserve" style="font-style:normal;font-variant:normal;font-weight:400;font-stretch:normal;font-size:14.6667px;line-height:normal;font-family:&quot;Liberation Mono&quot;;-inkscape-font-specification:&quot;Liberation Mono&quot;;font-variant-ligatures:normal;font-variant-position:normal;font-variant-caps:normal;font-variant-numeric:normal;font-variant-alternates:normal;font-variant-east-asian:normal;font-feature-settings:normal;font-variation-settings:normal;text-indent:0;text-align:start;text-decoration-line:none;text-decoration-style:solid;text-decoration-color:#000;letter-spacing:normal;word-spacing:normal;text-transform:none;writing-mode:lr-tb;direction:ltr;text-orientation:mixed;dominant-baseline:auto;baseline-shift:baseline;white-space:pre;shape-inside:url(#f);shape-padding:0;shape-margin:0;inline-size:0;display:inline;opacity:1;vector-effect:none;fill:#000;fill-opacity:1;stroke:none;stroke-width:1;stroke-linecap:butt;stroke-linejoin:miter;stroke-miterlimit:4;stroke-dasharray:none;stroke-dashoffset:0;stroke-opacity:1;-inkscape-stroke:none;stop-color:#000;stop-opacity:1" transform="translate(-37.966 -37.46)scale(.26458)"><tspan x="197.141" y="338.085">Rc</tspan></text><path d="m27.1 75.995-8.473-23.04" style="fill:#fff;stroke:#999;stroke-width:.264583;marker-start:url(#b)"/><path d="m26.936 37.136-8.082 12.335" style="fill:#fff;stroke:#999;stroke-width:.264583;marker-start:url(#g)"/><circle cx="68.512" cy="56.298" r="1.933" style="fill:none;stroke:green;stroke-width:.264583;stroke-linejoin:bevel"/><path d="M54.7 56.298v10.543M62.714 56.298v10.543M66.58 56.298v10.543M70.445 56.298v10.543M62.714 45.756v10.542M66.58 45.756v10.542" style="fill:none;stroke:#b3b3b3;stroke-width:.264583"/><path d="M55.074 66.84h7.535" style="fill:none;stroke:#000;stroke-width:.264583;marker-start:url(#b);marker-end:url(#b)"/><path d="M66.926 66.84h3.407" style="fill:none;stroke:#000;stroke-width:.264583;marker-start:url(#h);marker-end:url(#h)"/><path d="M62.714 45.756h3.538" style="fill:none;stroke:#000;stroke-width:.264583;marker-start:url(#i);marker-end:url(#i)"/><text xml:space="preserve" style="font-size:14.6667px;line-height:1.25;font-family:sans-serif;white-space:pre;shape-inside:url(#j);display:inline" transform="translate(63.062 -.81)scale(.26458)"><tspan x="12.225" y="271.542">D2</tspan></text><text xml:space="preserve" style="font-size:14.6667px;line-height:normal;font-family:&quot;Liberation Mono&quot;;-inkscape-font-specification:&quot;Liberation Mono&quot;;text-align:center;text-decoration-color:#000;white-space:pre;shape-inside:url(#k);display:inline;fill:#a80;stroke-width:1;-inkscape-stroke:none;stop-color:#000" transform="translate(1.566 1.98)scale(.26458)"><tspan x="198.583" y="159.052">(D1+D2)/4</tspan></text><path d="M32.395 39.904h52.36v32.524h-52.36z" style="fill:none;stroke:green;stroke-width:.264583;stroke-linejoin:bevel"/><path d="M42.93 72.307V66.6" style="fill:none;stroke:#000;stroke-width:.264583;marker-start:url(#b)"/><path d="M42.93 77.576v5.707" style="fill:none;stroke:#000;stroke-width:.264583;marker-start:url(#l)"/><text xml:space="preserve" style="font-size:14.6667px;line-height:normal;font-family:&quot;Liberation Mono&quot;;-inkscape-font-specification:&quot;Liberation Mono&quot;;text-align:center;text-decoration-color:#000;white-space:pre;shape-inside:url(#m);display:inline;fill:#000;stroke-width:1;-inkscape-stroke:none;stop-color:#000" transform="translate(-19.554 -16.445)scale(.26458)"><tspan x="227.71" y="391.181">W1</tspan></text><path d="m84.273 73.323-8.472 13.612" style="fill:#fff;stroke:#999;stroke-width:.264583;marker-start:url(#n)"/><text xml:space="preserve" style="font-size:14.6667px;line-height:normal;font-family:&quot;Liberation Mono&quot;;-inkscape-font-specification:&quot;Liberation Mono&quot;;text-align:center;text-decoration-color:#000;white-space:pre;shape-inside:url(#o);display:inline;fill:#a80;stroke-width:1;-inkscape-stroke:none;stop-color:#000" transform="translate(-3.695 -15.761)scale(.26458)"><tspan x="277.804" y="400.138">Rc-W1</tspan></text><path d="M60.026 159.744h10.78v5.714h-10.78Z" style="fill:none;stroke:#c6e9af;stroke-width:.264583"/><path d="M42.682 131.947h7.067v27.797h31.334v-27.797h7.066v33.511H42.682Z" style="fill:none;stroke:green;stroke-width:.264583"/><path d="M42.682 122.09v9.724M49.749 122.223v9.724M60.026 150.02v9.724M70.805 150.02v9.724M97.873 131.947h-9.724M98.005 165.458h-9.723M42.55 165.458h-9.724M42.34 159.744h-9.723M42.682 165.59v9.724M88.15 165.59v9.724" style="fill:none;stroke:#b3b3b3;stroke-width:.264583"/><path d="m97.873 131.947.132 33.511" style="fill:none;stroke:#000;stroke-width:.264583;marker-start:url(#b);marker-end:url(#b)"/><path d="M60.026 150.02h10.78" style="fill:none;stroke:#000;stroke-width:.264583;marker-start:url(#b);marker-end:url(#b)"/><path d="M42.682 175.314H88.15" style="fill:none;stroke:#000;stroke-width:.264583;marker-start:url(#b);marker-end:url(#b)"/><path d="m42.682 122.09 7.067.133" style="fill:none;stroke:#000;stroke-width:.264583;marker-start:url(#b);marker-end:url(#b)"/><path d="m32.694 159.843.132 5.45" style="fill:none;stroke:#000;stroke-width:.264583;marker-start:url(#p);marker-end:url(#p)"/><text xml:space="preserve" style="font-size:14.6667px;line-height:normal;font-family:&quot;Liberation Mono&quot;;-inkscape-font-specification:&quot;Liberation Mono&quot;;text-align:center;text-decoration-color:#000;white-space:pre;shape-inside:url(#q);display:inline;fill:#000;stroke-width:1;-inkscape-stroke:none;stop-color:#000" transform="translate(-7.417 -85.088)scale(.26458)"><tspan x="194.999" y="779.609">W1</tspan></text><text xml:space="preserve" style="font-size:14.6667px;line-height:normal;font-family:&quot;Liberation Mono&quot;;-inkscape-font-specification:&quot;Liberation Mono&quot;;text-align:center;text-decoration-color:#000;white-space:pre;shape-inside:url(#r);display:inline;fill:#000;stroke-width:1;-inkscape-stroke:none;stop-color:#000" transform="translate(-21.518 -60.793)scale(.26458)"><tspan x="321.111" y="792.659">D1</tspan></text><text xml:space="preserve" style="font-size:14.6667px;line-height:normal;font-family:&quot;Liberation Mono&quot;;-inkscape-font-specification:&quot;Liberation Mono&quot;;text-align:center;text-decoration-color:#000;white-space:pre;shape-inside:url(#s);display:inline;fill:#000;stroke-width:1;-inkscape-stroke:none;stop-color:#000" transform="translate(-57.885 -33.963)scale(.26458)"><tspan x="459.94" y="805.71">L2</tspan></text><text xml:space="preserve" style="font-size:14.6667px;line-height:normal;font-family:&quot;Liberation Mono&quot;;-inkscape-font-specification:&quot;Liberation Mono&quot;;text-align:center;text-decoration-color:#000;white-space:pre;shape-inside:url(#t);display:inline;fill:#000;stroke-width:1;-inkscape-stroke:none;stop-color:#000" transform="translate(-32.686 -39.465)scale(.26458)"><tspan x="496.185" y="717.71">H1</tspan></text><text xml:space="preserve" style="font-size:14.6667px;line-height:normal;font-family:&quot;Liberation Mono&quot;;-inkscape-font-specification:&quot;Liberation Mono&quot;;text-align:center;text-decoration-color:#000;white-space:pre;shape-inside:url(#u);display:inline;fill:#000;stroke-width:1;-inkscape-stroke:none;stop-color:#000" transform="translate(-104.4 -26.533)scale(.26458)"><tspan x="496.185" y="717.71">H2</tspan></text><text xml:space="preserve" style="font-size:14.6667px;line-height:normal;font-family:&quot;Liberation Mono&quot;;-inkscape-font-specification:&quot;Liberation Mono&quot;;text-align:center;text-decoration-color:#000;white-space:pre;shape-inside:url(#v);display:inline;fill:#000;stroke-width:1;-inkscape-stroke:none;stop-color:#000" transform="translate(-80.177 -62.667)scale(.26458)"><tspan x="446.209" y="417.925">holes?</tspan></text><path d="m51.266 47.991 4.208 5.068" style="fill:none;stroke:#000;stroke-width:.264583;marker-end:url(#b)"/><path d="m51.39 46.87 14.392 7.956" style="fill:none;stroke:#000;stroke-width:.264583;marker-end:url(#b)"/><text xml:space="preserve" style="font-size:14.6667px;line-height:normal;font-family:&quot;Liberation Mono&quot;;-inkscape-font-specification:&quot;Liberation Mono&quot;;text-align:center;text-decoration-color:#000;white-space:pre;shape-inside:url(#w);display:inline;fill:#000;stroke-width:1;-inkscape-stroke:none;stop-color:#000" transform="scale(.26458)"><tspan x="223.41" y="527.525">holes?</tspan></text><path d="M72.74 139.04s4.071 6.337 4.842 9.941c.83 3.878 1.961 8.69-.379 11.891-1.066 1.459-5.11 1.81-5.11 1.81" style="fill:none;stroke:#000;stroke-width:.264583;marker-end:url(#b)"/></svg>